<?xml version="1.0" encoding="utf-8"?>
<!-- Generator: Adobe Illustrator 19.0.0, SVG Export Plug-In . SVG Version: 6.00 Build 0)  -->
<svg version="1.1" id="Layer_1" xmlns="http://www.w3.org/2000/svg" xmlns:xlink="http://www.w3.org/1999/xlink" x="0px" y="0px"
	 viewBox="0 0 230 230" style="enable-background:new 0 0 230 230;" xml:space="preserve">
<style type="text/css">
	.st0{fill:#FFFFFF;stroke-miterlimit:10;}
	.st1{fill:#0E161B;}
</style>
<circle id="XMLID_1_" class="st0" cx="118.3" cy="115.6" r="105" fill-opacity=".8"/>

<circle id="XMLID_2_" class="st1" cx="66" cy="105.9" r="2.1">
<animate attributeName="r" from="1" to="1"
                 begin="0s" dur="0.8s"
                 values="2;4;2;2;2;2;2;2;2" calcMode="linear"
                 repeatCount="indefinite" />

</circle>
<circle id="XMLID_4_" class="st1" cx="73.8" cy="109.6" r="2.1">
<animate attributeName="r" from="1" to="1"
                 begin="0s" dur="0.8s"
                 values="2;2;4;2;2;2;2;2;2" calcMode="linear"
                 repeatCount="indefinite" />

</circle>
<circle id="XMLID_3_" class="st1" cx="75.8" cy="116.6" r="2.1">
<animate attributeName="r" from="1" to="1"
                 begin="0s" dur="0.8s"
                 values="2;2;2;4;2;2;2;2;2" calcMode="linear"
                 repeatCount="indefinite" />

</circle>
<circle id="XMLID_5_" class="st1" cx="72.8" cy="123.6" r="2.1">
<animate attributeName="r" from="1" to="1"
                 begin="0s" dur="0.8s"
                 values="2;2;2;2;4;2;2;2;2" calcMode="linear"
                 repeatCount="indefinite" />

</circle>
<circle id="XMLID_6_" class="st1" cx="64.8" cy="125.6" r="2.1">
<animate attributeName="r" from="1" to="1"
                 begin="0s" dur="0.8s"
                 values="2;2;2;2;2;4;2;2;2" calcMode="linear"
                 repeatCount="indefinite" />

</circle>
<circle id="XMLID_7_" class="st1" cx="57.8" cy="122.6" r="2.1">
<animate attributeName="r" from="1" to="1"
                 begin="0s" dur="0.8s"
                 values="2;2;2;2;2;2;4;2;2" calcMode="linear"
                 repeatCount="indefinite" />

</circle>
<circle id="XMLID_8_" class="st1" cx="54.8" cy="115.6" r="2.1">
<animate attributeName="r" from="1" to="1"
                 begin="0s" dur="0.8s"
                 values="2;2;2;2;2;2;2;4;2" calcMode="linear"
                 repeatCount="indefinite" />

</circle>
<circle id="XMLID_9_" class="st1" cx="57.8" cy="108.6" r="2.1">
<animate attributeName="r" from="1" to="2"
                 begin="0s" dur="0.8s"
                 values="2;2;2;2;2;2;2;2;4" calcMode="linear"
                 repeatCount="indefinite" />
</circle>
<g id="XMLID_11_">
<path id="XMLID_12_" class="st1" d="M92.6,120.6v-11.1h1.9v9.3h5.1v1.8H92.6z"/>
<path id="XMLID_14_" class="st1" d="M113.1,119c-1.1,1.1-2.5,1.6-4.2,1.6c-1.7,0-3-0.5-4.2-1.6c-1.1-1.1-1.7-2.5-1.7-4.1
	c0-1.6,0.6-3,1.7-4.1c1.1-1.1,2.5-1.6,4.2-1.6c1.7,0,3,0.5,4.2,1.6c1.1,1.1,1.7,2.5,1.7,4.1C114.8,116.6,114.2,117.9,113.1,119z
	 M111.7,112.1c-0.8-0.8-1.7-1.2-2.8-1.2c-1.1,0-2,0.4-2.8,1.2c-0.8,0.8-1.1,1.7-1.1,2.9s0.4,2.1,1.1,2.9c0.8,0.8,1.7,1.2,2.8,1.2
	c1.1,0,2-0.4,2.8-1.2s1.1-1.7,1.1-2.9S112.5,112.8,111.7,112.1z"/>
<path id="XMLID_17_" class="st1" d="M121.9,118l-1.1,2.5h-2l4.9-11.1h2l4.9,11.1h-2l-1.1-2.5H121.9z M126.7,116.3l-2-4.6l-2,4.6
	H126.7z"/>
<path id="XMLID_20_" class="st1" d="M143.1,110.9c1.1,1,1.6,2.3,1.6,4c0,1.7-0.5,3.1-1.6,4.1c-1,1-2.6,1.5-4.8,1.5h-3.7v-11.1h3.8
	C140.5,109.4,142,109.9,143.1,110.9z M142.8,115c0-2.5-1.5-3.8-4.4-3.8h-1.9v7.6h2.1c1.3,0,2.4-0.3,3.1-1S142.8,116.2,142.8,115z"/>
<path id="XMLID_23_" class="st1" d="M149.7,109.4h1.9v11.1h-1.9V109.4z"/>
<path id="XMLID_25_" class="st1" d="M165.6,109.4h1.9v11.1h-2l-6.3-8.1v8.1h-1.9v-11.1h1.9l6.5,8.3V109.4z"/>
<path id="XMLID_27_" class="st1" d="M180.8,115.1h1.9v3.8c-1.1,1.2-2.6,1.7-4.5,1.7c-1.6,0-3-0.5-4.1-1.6c-1.1-1.1-1.7-2.5-1.7-4.1
	c0-1.7,0.6-3,1.7-4.1c1.1-1.1,2.5-1.7,4.1-1.7c1.6,0,2.9,0.5,4,1.4l-1,1.4c-0.4-0.4-0.9-0.6-1.3-0.8c-0.4-0.1-1-0.2-1.5-0.2
	c-1.1,0-2.1,0.4-2.8,1.1c-0.8,0.7-1.1,1.7-1.1,2.9c0,1.2,0.4,2.1,1.1,2.8c0.7,0.7,1.6,1.1,2.7,1.1c1.1,0,1.9-0.2,2.6-0.7V115.1z"/>
</g>
</svg>
